<svg width="51" height="51" viewBox="0 0 51 51" fill="none" xmlns="http://www.w3.org/2000/svg">
<g clip-path="url(#clip0_168_666)">
<path d="M0.166016 18.7465C0.166016 12.3984 0.166016 9.22439 1.40143 6.79974C2.48814 4.66697 4.22214 2.93296 6.35492 1.84626C8.77956 0.61084 11.9536 0.61084 18.3017 0.61084H32.1421C38.4901 0.61084 41.6642 0.61084 44.0888 1.84626C46.2216 2.93296 47.9556 4.66697 49.0423 6.79974C50.2777 9.22439 50.2777 12.3984 50.2777 18.7465V32.5869C50.2777 38.935 50.2777 42.109 49.0423 44.5336C47.9556 46.6664 46.2216 48.4004 44.0888 49.4871C41.6642 50.7225 38.4901 50.7225 32.1421 50.7225H18.3017C11.9536 50.7225 8.77956 50.7225 6.35492 49.4871C4.22214 48.4004 2.48814 46.6664 1.40143 44.5336C0.166016 42.109 0.166016 38.935 0.166016 32.5869V18.7465Z" fill="#001E36"/>
<path d="M10.9043 37.3291V15.2928C10.9043 15.1429 10.9669 15.0572 11.1131 15.0572C13.2708 15.0572 15.4275 14.9287 17.5859 14.9287C21.088 14.9287 24.8801 16.1262 26.2093 19.79C26.5224 20.6894 26.6895 21.6103 26.6895 22.574C26.6895 24.4157 26.2719 25.9362 25.4367 27.1354C23.1037 30.4854 19.06 30.4334 15.4352 30.4334V37.3077C15.4636 37.5112 15.2901 37.6075 15.122 37.6075H11.1549C10.9878 37.6075 10.9043 37.5218 10.9043 37.3291ZM15.4561 19.1903V26.3859C16.8933 26.4912 18.3973 26.5026 19.7782 26.0432C21.3028 25.6035 22.1377 24.2838 22.1377 22.7025C22.1801 21.355 21.4458 20.0621 20.1958 19.5758C18.8315 19.0085 16.9288 18.9746 15.4561 19.1903Z" fill="#31A8FF"/>
<path d="M39.7126 24.9643C39.0808 24.6313 38.4079 24.3877 37.7123 24.2402C36.8185 24.0298 33.2931 23.2933 33.2918 25.1366C33.3231 26.1658 34.9567 26.67 35.6785 26.964C38.2124 27.8339 41.0799 29.389 41.0236 32.5151C41.101 36.4066 37.3306 37.9623 34.0985 37.9627C32.4159 37.9801 30.6631 37.7195 29.1233 36.9972C28.9763 36.9194 28.8816 36.753 28.8879 36.5835V32.8598C28.8714 32.7105 29.0316 32.58 29.1569 32.6874C30.6657 33.5999 32.454 34.0429 34.1994 34.0666C34.9699 34.0666 36.4969 33.9919 36.4853 32.8598C36.4853 31.7734 34.6586 31.2739 33.9304 30.998C32.8749 30.6211 31.8741 30.0992 30.9554 29.4464C29.6715 28.5306 28.866 27.0623 28.888 25.4469C28.8804 21.7827 32.3512 20.138 35.4769 20.1372C36.9381 20.1252 38.5072 20.2334 39.8674 20.8268C40.063 20.8844 40.1036 21.0904 40.1027 21.275V24.7574C40.1151 24.9735 39.8751 25.0471 39.7126 24.9643Z" fill="#31A8FF"/>
</g>
<defs>
<clipPath id="clip0_168_666">
<rect width="50.1117" height="50.1117" fill="white" transform="translate(0.166016 0.61084)"/>
</clipPath>
</defs>
</svg>
