<svg width="51" height="51" viewBox="0 0 51 51" fill="none" xmlns="http://www.w3.org/2000/svg">
<g clip-path="url(#clip0_168_665)">
<path d="M0.336914 18.7465C0.336914 12.3984 0.336914 9.22439 1.57233 6.79974C2.65904 4.66697 4.39304 2.93296 6.52582 1.84626C8.95046 0.61084 12.1245 0.61084 18.4726 0.61084H32.313C38.661 0.61084 41.8351 0.61084 44.2597 1.84626C46.3925 2.93296 48.1265 4.66697 49.2132 6.79974C50.4486 9.22439 50.4486 12.3984 50.4486 18.7465V32.5869C50.4486 38.935 50.4486 42.109 49.2132 44.5336C48.1265 46.6664 46.3925 48.4004 44.2597 49.4871C41.8351 50.7225 38.661 50.7225 32.313 50.7225H18.4726C12.1245 50.7225 8.95046 50.7225 6.52582 49.4871C4.39304 48.4004 2.65904 46.6664 1.57233 44.5336C0.336914 42.109 0.336914 38.935 0.336914 32.5869V18.7465Z" fill="#330000"/>
<path d="M24.6203 32.1028H16.8549L15.2749 37.1367C15.2311 37.3238 15.0588 37.4562 14.8715 37.447H10.9384C10.7141 37.447 10.6356 37.3206 10.7031 37.0678L17.4263 17.2081C17.4936 17.0013 17.5609 16.7657 17.6281 16.5013C17.716 16.0413 17.7611 15.5737 17.7626 15.105C17.7433 14.9665 17.865 14.8441 17.9979 14.8636H23.3428C23.4994 14.8636 23.5891 14.921 23.6118 15.036L31.2428 37.1022C31.31 37.3323 31.2428 37.4472 31.0411 37.447H26.6709C26.5176 37.4645 26.3712 37.3594 26.3347 37.2057L24.6203 32.1028ZM18.0651 27.7586H23.3765C22.5038 24.7766 21.519 21.8338 20.7208 18.8286C19.8596 21.8389 18.92 24.837 18.0651 27.7586Z" fill="#FF9A00"/>
<path d="M35.7806 18.5182C35.4378 18.5323 35.0958 18.4721 34.7772 18.3414C34.4586 18.2106 34.1705 18.0124 33.9317 17.7597C33.6936 17.496 33.5086 17.1866 33.3875 16.8493C33.2663 16.512 33.2113 16.1535 33.2257 15.7944C33.2135 15.4388 33.2745 15.0846 33.4049 14.7549C33.5352 14.4251 33.7319 14.1273 33.9821 13.8808C34.2299 13.6369 34.5223 13.4458 34.8426 13.3186C35.1628 13.1913 35.5045 13.1305 35.8478 13.1396C36.6547 13.1396 37.2878 13.3866 37.7472 13.8808C37.9791 14.1376 38.1593 14.4389 38.2776 14.7672C38.3958 15.0956 38.4497 15.4446 38.4363 15.7944C38.4503 16.1549 38.3936 16.5147 38.2695 16.8523C38.1453 17.1899 37.9563 17.4985 37.7135 17.7597C37.4599 18.0161 37.1572 18.2159 36.8245 18.3465C36.4918 18.477 36.1364 18.5355 35.7806 18.5182ZM33.461 37.1021V20.6214C33.461 20.4145 33.5503 20.311 33.73 20.311H37.8648C38.044 20.311 38.1336 20.4145 38.1338 20.6214V37.1021C38.1338 37.3322 38.0441 37.4471 37.8648 37.4469H33.7636C33.5619 37.4469 33.4611 37.332 33.461 37.1021Z" fill="#FF9A00"/>
</g>
<defs>
<clipPath id="clip0_168_665">
<rect width="50.1117" height="50.1117" fill="white" transform="translate(0.336914 0.61084)"/>
</clipPath>
</defs>
</svg>
