<svg width="51" height="51" viewBox="0 0 51 51" fill="none" xmlns="http://www.w3.org/2000/svg">
<g clip-path="url(#clip0_168_667)">
<path d="M17.2699 50.7225C21.8802 50.7225 25.6219 46.9808 25.6219 42.3705V34.0186H17.2699C12.6596 34.0186 8.91797 37.7602 8.91797 42.3705C8.91797 46.9808 12.6596 50.7225 17.2699 50.7225Z" fill="#0ACF83"/>
<path d="M8.91797 25.6669C8.91797 21.0566 12.6596 17.3149 17.2699 17.3149H25.6219V34.0188H17.2699C12.6596 34.0188 8.91797 30.2772 8.91797 25.6669Z" fill="#A259FF"/>
<path d="M8.91797 8.96279C8.91797 4.35251 12.6596 0.61084 17.2699 0.61084H25.6219V17.3147H17.2699C12.6596 17.3147 8.91797 13.5731 8.91797 8.96279Z" fill="#F24E1E"/>
<path d="M25.6221 0.61084H33.974C38.5843 0.61084 42.326 4.35251 42.326 8.96279C42.326 13.5731 38.5843 17.3147 33.974 17.3147H25.6221V0.61084Z" fill="#FF7262"/>
<path d="M42.326 25.6669C42.326 30.2772 38.5843 34.0188 33.974 34.0188C29.3637 34.0188 25.6221 30.2772 25.6221 25.6669C25.6221 21.0566 29.3637 17.3149 33.974 17.3149C38.5843 17.3149 42.326 21.0566 42.326 25.6669Z" fill="#1ABCFE"/>
</g>
<defs>
<clipPath id="clip0_168_667">
<rect width="50.1117" height="50.1117" fill="white" transform="translate(0.500977 0.61084)"/>
</clipPath>
</defs>
</svg>
